<svg id="Layer_1" data-name="Layer 1" xmlns="http://www.w3.org/2000/svg" viewBox="0 0 431.12 267.73"><defs><style>.cls-1{fill:#ff9592;}.cls-2{fill:#ff3831;}.cls-3{fill:#00265d;}.cls-4{fill:#ff7373;}.cls-5{fill:#001038;}</style></defs><path class="cls-1" d="M269.39,204.43h-.82l-.17,0a.33.33,0,0,0-.18.08.19.19,0,0,0,0,.26.31.31,0,0,0,.18.07l.16,0h.83a.22.22,0,1,0,0-.44Z" transform="translate(-34.94 -15.72)"/><path class="cls-1" d="M172.41,186.83c10.58-2.24,40.06,8.65,71.15,12.5s44.18-29.15,44.18-29.15c-5.5-14.9-22.49-21.38-34.65-31.61-6.28-5.29-11.42-11.79-17.17-17.66a114.32,114.32,0,0,0-46.39-28.69c-6.26-2-12.75-3.51-18.59-6.54-14.56-9.84-31.46-17.57-49.76-24a199.9,199.9,0,0,0-56.64-33c-5.75-2.18-11.63-4.1-17-7.09-3.95-2.19-7.72-5-12.15-5.82-3.81,4,17.79,26.06,25,20.16,9.46,6.89,53.32,37.58,53.32,37.58,10.68,8.18,23.17,13.61,35.52,19l6.13,12.5A40.83,40.83,0,0,1,156.7,137c-1.47,3.82-3.53,7.42-4.68,11.35a42.82,42.82,0,0,0-1.4,11,118.65,118.65,0,0,0,8.07,45.9,54.67,54.67,0,0,1,2.88,8.39c1,4.83.41,9.84.69,14.77.87,15.51,10.5,29.72,10.26,45.25" transform="translate(-34.94 -15.72)"/><path class="cls-2" d="M253.09,138.57c-6.28-5.29-11.42-11.79-17.17-17.66a114.32,114.32,0,0,0-46.39-28.69c-6.26-2-12.75-3.51-18.59-6.54C156.65,76,140.1,68.4,122.2,62c-.22.44-.43.87-.67,1.31A67.6,67.6,0,0,1,114.45,74c10.52,7.88,22.72,13.2,34.79,18.42l6.13,12.5c.2.41.34.84.53,1.25,12.3,1.25,23.24,15.2,17.47,27.44-2.61,5.54-8.3,8-14,9.33a51.46,51.46,0,0,1-5.79,1.12,38.49,38.49,0,0,0-1.6,4.27,42.82,42.82,0,0,0-1.4,11,118.65,118.65,0,0,0,8.07,45.9,54.67,54.67,0,0,1,2.88,8.39c1,4.83.41,9.84.69,14.77.87,15.51,10.5,29.72,10.26,45.25l-.11-86.8c10.58-2.24,40.06,8.65,71.15,12.5s44.18-29.15,44.18-29.15C282.24,155.28,265.25,148.8,253.09,138.57Z" transform="translate(-34.94 -15.72)"/><path class="cls-1" d="M226.71,184a213.52,213.52,0,0,0-55-16.82c-6.77-1.11-14.48-1.64-19.71,2.79-3.23,2.74-4.88,6.92-5.75,11.07-5.3,25.22,13.79,49.7,13,75.46a9.33,9.33,0,0,1-.92,4.41c-1.15,2-3.48,3.05-5.65,3.92l-28.23,11.35,50.45,1.52q-1.41-37.42-1.85-74.89a6.11,6.11,0,0,1,.78-3.78c1.62-2.21,5.05-1.32,7.59-.3a120.82,120.82,0,0,0,76.3,4.24l12.64-2.69Z" transform="translate(-34.94 -15.72)"/><path class="cls-1" d="M414.86,265.59s1.3,10.63.74,16.67l50.46,1.19C456.87,279.17,414.86,265.59,414.86,265.59Z" transform="translate(-34.94 -15.72)"/><path class="cls-3" d="M226.71,184c-5.46-2.52-11.05-4.78-16.71-6.82,5.1,7.41,9,15.81,12.46,24,.83,2,3.31,7.74,3.31,7.74l38.94-2.24,5.67-6.41Z" transform="translate(-34.94 -15.72)"/><path class="cls-1" d="M416.89,277.41c-4.09.14,8.7,4.28,18.7,5.21-10.39-14.53-27.49-22.47-41-34.16-9.77-8.45-17.91-19.07-29.3-25.18-9.91-5.31-21.62-6.81-31.12-12.82-8.48-5.35-14.43-13.79-20.75-21.57a204.43,204.43,0,0,0-30.1-30l-23.2,42.29c16.22,12,37.94,14.06,55,24.91,8.24,5.25,15.62,12.64,25.21,14.51,3.16.61,6.54.62,9.33,2.21,3.26,1.86,5.07,5.5,8,7.84,2.28,1.84,5.12,2.8,7.88,3.77a254.76,254.76,0,0,1,50.22,24.14s-.81,3.91,2.29,3.91h33.12a7.67,7.67,0,0,0-4.7-2.45c-2.78-.22-16.56-4.7-20.83-6.41" transform="translate(-34.94 -15.72)"/><path class="cls-1" d="M166.32,126a17.66,17.66,0,0,1-2.61,7.15l-22.77-1.62-17.64-1.07c-5.07-.31-10.66-.85-14.2-4.49s-3.92-9.64-3.92-14.92c0-3.77,0-7.69,1.66-11.1,2.26-4.67,7.33-7.49,12.46-8.31s10.36.15,15.41,1.36c4.54,1.08,9,2.36,13.41,3.87,2.51.85,5.15,1.87,6.62,4,1.69,2.49,1.3,5.62,0,8.44l1,.1,4,.43,2.59.29A20.4,20.4,0,0,1,166.32,126Z" transform="translate(-34.94 -15.72)"/><path class="cls-3" d="M223.39,183.45a80.91,80.91,0,0,0,44.71-30.12,8.21,8.21,0,0,0,2-4.41s22.94,15.9,30.09,24.62c.87,3.36-18.15,33.38-34.71,36" transform="translate(-34.94 -15.72)"/><path class="cls-4" d="M156.71,123.38c-9.61,8.33-27.56-1.08-27.56-1.08a117.54,117.54,0,0,0,16.46-.85c7.89-1.07,9-11.33,9-11.33l1.18-.64,4,.43C161.48,112.48,163.43,117.56,156.71,123.38Z" transform="translate(-34.94 -15.72)"/><polyline class="cls-1" points="98.48 82.23 107.24 76.89 107.88 84.58"/><path class="cls-5" d="M126.43,120.54a1.41,1.41,0,0,1,1.39-2.34,13,13,0,0,1-1.56-2.8l6.88.48a25.44,25.44,0,0,0-.44-5.71,23.9,23.9,0,0,0-4.71-.09,7.07,7.07,0,0,1-4.47-1.16c-1.24-1-1.83-2.91-.89-4.17-1.62-1.63-4.93-.16-6.43-1.92-.83-1-.61-2.44-.4-3.72a34.91,34.91,0,0,0-.49-13.47l-5.24,5.58a34.31,34.31,0,0,1-.43-6.94c-.45-.35-1,.33-1.17.87-.6,1.87-1.19,3.74-1.79,5.6-3.69,5.7-7.1,11.79-7.24,18.5a39.13,39.13,0,0,0,1.79,10.8c.66,2.48,1.41,5.07,3.24,6.87a13.4,13.4,0,0,0,5.91,2.9,67.93,67.93,0,0,0,23.23,2.28A37.73,37.73,0,0,0,126.43,120.54Z" transform="translate(-34.94 -15.72)"/><path class="cls-1" d="M121.85,114.3s-2.35,9,7.57,9.58,8.41-8.54,8.41-8.54Z" transform="translate(-34.94 -15.72)"/><path class="cls-5" d="M131.69,110.44c3.55.41,7.85-.47,9.23-3.77.77-1.82.41-3.89.41-5.86s.6-4.26,2.4-5.06a4,4,0,0,0,1.42,3.16c1,.68,2.64.37,3-.78a2,2,0,0,1,.25-.76,1.12,1.12,0,0,1,.73-.32,7.85,7.85,0,0,1,8.62,7.56,14,14,0,0,1-.9,4.17c-1.44,4.32-3.54,9-7.72,10.78-3.17,1.37-6.87.77-10.07-.53s-6.08-3.25-9.23-4.67" transform="translate(-34.94 -15.72)"/></svg>