<svg id="Layer_1" data-name="Layer 1" xmlns="http://www.w3.org/2000/svg" viewBox="0 0 429.65 265.15"><defs><style>.cls-1{fill:none;}.cls-2{fill:#ae5555;}.cls-3{fill:#00265d;}.cls-4{fill:#c06360;}.cls-5{fill:#ff3831;}</style></defs><path class="cls-1" d="M415,232.33h0c-2-2.59-4-5.14-6-7.68l-.41-.52q-2.94-3.67-5.89-7.31l-.06-.08c-.14-.16-.26-.33-.4-.49q-6.3-7.81-12.47-15.72c-2.37-3-4.69-6.09-7-9.14-1.83-2.39-3.68-4.76-5.49-7.15-3.13-4.15-6.22-8.33-9.31-12.51-.95-1.3-1.92-2.58-2.87-3.87q-5.36-7.34-10.6-14.75l-1.26-1.75q-5.71-8.07-11.3-16.23l-.28-.42q-15.19-22.17-29.43-45a75.35,75.35,0,0,0-19.3,30.51c-3.18,9.61-4.45,19.94-9.22,28.86-4.26,8-11.08,14.31-18.45,19.55a107.26,107.26,0,0,1-66.27,19.57l-1.54-.33-2.07-.27c-.72.83-1.44,1.66-2.13,2.52l.9.92c4.19,4.23,8.67,9.18,8.43,15.12-.15,3.91-2.38,7.42-4.76,10.52a78,78,0,0,1-23.16,20.2c-3.9,2.23-8.28,4.17-12.74,3.65a16.5,16.5,0,0,1-5.91-2,296.48,296.48,0,0,1-23.58,18.26l-31,22.32,294.18,3.15a145.42,145.42,0,0,0,38.52-18C429.51,252.67,422.57,242.28,415,232.33Z" transform="translate(-30.2 -17.73)"/><path class="cls-2" d="M174.59,236.92a78,78,0,0,0,23.16-20.2c2.38-3.1,4.61-6.61,4.76-10.52.24-5.94-4.24-10.89-8.43-15.12l-.9-.92c-8.87,11-15.75,24.5-24.77,35.53a112.89,112.89,0,0,1-12.47,12.84,16.5,16.5,0,0,0,5.91,2C166.31,241.09,170.69,239.15,174.59,236.92Z" transform="translate(-30.2 -17.73)"/><path class="cls-3" d="M160.93,178.48l-1.28-.26c-6.83-1.83-14.35,1.23-19.11,6.47s-7,12.32-7.86,19.34a29.72,29.72,0,0,0,.35,10.39,20.6,20.6,0,0,0,.72,2.18,224.12,224.12,0,0,0,15.82-20.24C153.55,190.53,157.21,184.48,160.93,178.48Z" transform="translate(-30.2 -17.73)"/><path class="cls-4" d="M213,173.76c-7,3.24-12.7,8.14-17.7,13.88l2.07.27,1.54.33a107.26,107.26,0,0,0,66.27-19.57c7.37-5.24,14.19-11.57,18.45-19.55,4.77-8.92,6-19.25,9.22-28.86a75.35,75.35,0,0,1,19.3-30.51c-2.35-3.75-4.71-7.48-7-11.25Z" transform="translate(-30.2 -17.73)"/><path class="cls-4" d="M341.59,134.71q-15.18-22.17-29.41-45l0,0Q326.41,112.54,341.59,134.71Z" transform="translate(-30.2 -17.73)"/><path class="cls-4" d="M341.87,135.13q5.6,8.16,11.3,16.23Q347.46,143.29,341.87,135.13Z" transform="translate(-30.2 -17.73)"/><path class="cls-4" d="M354.43,153.11q5.25,7.41,10.6,14.75Q359.67,160.52,354.43,153.11Z" transform="translate(-30.2 -17.73)"/><path class="cls-4" d="M326.92,17.73c1,0,1.93.05,2.9.12C328.85,17.78,327.88,17.73,326.92,17.73Z" transform="translate(-30.2 -17.73)"/><path class="cls-4" d="M436.14,207.71c.12.5.24,1,.35,1.51C436.38,208.71,436.26,208.21,436.14,207.71Z" transform="translate(-30.2 -17.73)"/><path class="cls-4" d="M337.2,18.93a24.27,24.27,0,0,1,7.36,3A24.27,24.27,0,0,0,337.2,18.93Z" transform="translate(-30.2 -17.73)"/><path class="cls-4" d="M408.54,224.13l.41.52Z" transform="translate(-30.2 -17.73)"/><path class="cls-4" d="M367.9,171.73c3.09,4.18,6.18,8.36,9.31,12.51C374.08,180.09,371,175.91,367.9,171.73Z" transform="translate(-30.2 -17.73)"/><path class="cls-4" d="M434.7,202.13c.18.62.35,1.24.52,1.86C435.05,203.37,434.88,202.75,434.7,202.13Z" transform="translate(-30.2 -17.73)"/><path class="cls-4" d="M382.7,191.39c2.33,3.05,4.65,6.11,7,9.14C387.35,197.5,385,194.44,382.7,191.39Z" transform="translate(-30.2 -17.73)"/><path class="cls-4" d="M433,196.89c.22.62.43,1.25.63,1.88C433.46,198.14,433.25,197.51,433,196.89Z" transform="translate(-30.2 -17.73)"/><path class="cls-4" d="M350.18,27.13c.74.88,1.45,1.79,2.14,2.73C351.63,28.92,350.92,28,350.18,27.13Z" transform="translate(-30.2 -17.73)"/><path class="cls-4" d="M431,191.87c.24.54.45,1.08.68,1.62C431.46,193,431.25,192.41,431,191.87Z" transform="translate(-30.2 -17.73)"/><path class="cls-4" d="M402.65,216.82l-.06-.08c-.14-.16-.26-.33-.4-.49.14.16.26.33.4.49Z" transform="translate(-30.2 -17.73)"/><path class="cls-4" d="M132.36,256.79a296.48,296.48,0,0,0,23.58-18.26,47.82,47.82,0,0,1-5-3.22c-7-5-14.34-10.75-17.23-18.71-8.26,9.51-17.13,18.55-26,27.53L78.15,274.18c-1.56,1.59-3.14,3.18-4.83,4.63l22.46.24S122,264.23,132.36,256.79Z" transform="translate(-30.2 -17.73)"/><path class="cls-4" d="M311.68,20.13c1.16-.36,2.33-.68,3.5-1C314,19.45,312.84,19.77,311.68,20.13Z" transform="translate(-30.2 -17.73)"/><path class="cls-4" d="M337.2,18.93c-.86-.22-1.74-.4-2.61-.55-1.28-.22-2.56-.38-3.83-.49,1.27.11,2.55.27,3.83.49C335.46,18.53,336.34,18.71,337.2,18.93Z" transform="translate(-30.2 -17.73)"/><path class="cls-4" d="M304.36,22.92c1.19-.54,2.4-1,3.61-1.51C306.76,21.88,305.55,22.38,304.36,22.92Z" transform="translate(-30.2 -17.73)"/><path class="cls-4" d="M315.45,19.1c1.1-.26,2.21-.47,3.32-.66C317.66,18.63,316.55,18.84,315.45,19.1Z" transform="translate(-30.2 -17.73)"/><path class="cls-4" d="M308,21.41c1.19-.46,2.39-.87,3.6-1.25C310.37,20.54,309.17,21,308,21.41Z" transform="translate(-30.2 -17.73)"/><path class="cls-4" d="M243.49,105.41c1.32,0,61.06-42.83,61.06-42.83l1.65,3.8c-.52-4-1.06-8-1.68-12.06-.8-10.66-1.49-21-.16-31.4a84.2,84.2,0,0,0-24.45,17.27c-14.43,14.44-24.76,32.38-37.68,48.18C220,115.5,190.36,136.09,170,164.62c-3.2,4.5-6.15,9.17-9,13.86l16.34,3.38C189.82,167.09,242.33,105.39,243.49,105.41Z" transform="translate(-30.2 -17.73)"/><path class="cls-4" d="M415,232.33c7.6,9.95,14.54,20.34,19.13,31.94a145.42,145.42,0,0,1-38.52,18l15.36.16,48.91-.37a176.56,176.56,0,0,1-19-50.42c-.51-2.45-1-4.92-1.43-7.39l0,.16A147.41,147.41,0,0,1,415,232.33Z" transform="translate(-30.2 -17.73)"/><path class="cls-4" d="M190,187l3.15,3.18c.69-.86,1.41-1.69,2.13-2.52Z" transform="translate(-30.2 -17.73)"/><path class="cls-4" d="M428.58,187.09v0c-.66-1.14-1.35-2.25-2.08-3.34.73,1.09,1.42,2.2,2.08,3.34Z" transform="translate(-30.2 -17.73)"/><path class="cls-4" d="M323.08,17.88c1-.08,2-.1,3-.12C325.05,17.78,324.06,17.81,323.08,17.88Z" transform="translate(-30.2 -17.73)"/><path class="cls-4" d="M319.25,18.35c1-.17,2.08-.28,3.13-.39C321.33,18.06,320.29,18.18,319.25,18.35Z" transform="translate(-30.2 -17.73)"/><path class="cls-4" d="M151,235.31a47.82,47.82,0,0,0,5,3.22,112.89,112.89,0,0,0,12.47-12.84c9-11,15.9-24.53,24.77-35.53L190,187,174.58,185l2.69-3.17-16.34-3.38c-3.72,6-7.38,12.05-11.36,17.88a224.12,224.12,0,0,1-15.82,20.24C136.64,224.56,144,230.31,151,235.31Z" transform="translate(-30.2 -17.73)"/><path class="cls-4" d="M213,173.76,305.14,78.5c2.31,3.77,4.67,7.5,7,11.25l0,0c-1.33-2.12-2.68-4.22-4-6.34q-.88-8.52-2-17l-1.65-3.8s-59.74,42.84-61.06,42.83c-1.16,0-53.67,61.68-66.22,76.45l9.66,2q1.55,1.58,3.1,3.13l5.28.66C200.31,181.9,206,177,213,173.76Z" transform="translate(-30.2 -17.73)"/><path class="cls-5" d="M308.2,83.39h0q-.88-8.52-2-17c-.52-4-1.06-8-1.68-12.06-.8-10.66-1.49-21-.16-31.4a84.2,84.2,0,0,0-24.45,17.27,148.68,148.68,0,0,0-11.32,12.89c-.37,1.92-.75,3.83-1.17,5.74-2.55,11.43-6.37,22.9-12.33,33.05-5.27,9-12.53,15.72-21.22,21.31-7.19,4.62-15.51,9.29-24.25,8.81-6.13,5.81-12.27,11.62-18.17,17.61a40.54,40.54,0,0,1,10,10.35c8,12.27,6.71,26.18-.11,38.34a107.26,107.26,0,0,0,63.9-19.62c7.37-5.24,14.19-11.57,18.45-19.55,4.77-8.92,6-19.25,9.22-28.86a75.35,75.35,0,0,1,19.3-30.51l0,0C310.86,87.62,309.51,85.52,308.2,83.39Z" transform="translate(-30.2 -17.73)"/><path class="cls-4" d="M177.27,181.86,174.58,185,190,187q-1.56-1.56-3.1-3.13Z" transform="translate(-30.2 -17.73)"/><path class="cls-3" d="M326,17.76c.29,0,.58,0,.88,0C326.62,17.73,326.33,17.75,326,17.76Z" transform="translate(-30.2 -17.73)"/><path class="cls-3" d="M322.38,18l.7-.08Z" transform="translate(-30.2 -17.73)"/><path class="cls-3" d="M411.53,165.45c-.84-1-1.67-2-2.48-3.06A118.28,118.28,0,0,1,395.3,139.6a118.28,118.28,0,0,0,13.75,22.79C409.86,163.42,410.69,164.44,411.53,165.45Z" transform="translate(-30.2 -17.73)"/><path class="cls-3" d="M375.16,79.78c1.8,5.77,3.5,11.6,5.21,17.41C378.66,91.38,377,85.55,375.16,79.78Z" transform="translate(-30.2 -17.73)"/><path class="cls-3" d="M415,232.33c-2-2.59-4-5.14-6-7.68,2,2.54,4.05,5.09,6,7.68Z" transform="translate(-30.2 -17.73)"/><path class="cls-3" d="M364.16,50.29a238,238,0,0,1,11,29.49A238,238,0,0,0,364.16,50.29Z" transform="translate(-30.2 -17.73)"/><path class="cls-3" d="M402.65,216.82q2.94,3.65,5.89,7.31Z" transform="translate(-30.2 -17.73)"/><path class="cls-3" d="M329.82,17.85c.31,0,.63,0,.94,0C330.45,17.86,330.13,17.87,329.82,17.85Z" transform="translate(-30.2 -17.73)"/><path class="cls-3" d="M311.58,20.16l.1,0Z" transform="translate(-30.2 -17.73)"/><path class="cls-3" d="M308,21.41h0Z" transform="translate(-30.2 -17.73)"/><polygon class="cls-3" points="274.16 5.19 274.16 5.19 274.16 5.19 274.16 5.19"/><path class="cls-3" d="M315.18,19.17l.27-.07Z" transform="translate(-30.2 -17.73)"/><path class="cls-3" d="M318.77,18.44c.16,0,.32-.07.48-.09C319.09,18.37,318.93,18.41,318.77,18.44Z" transform="translate(-30.2 -17.73)"/><path class="cls-3" d="M358,38.45q-2.26-3.84-4.85-7.51c-.26-.37-.53-.72-.79-1.08.26.36.53.71.79,1.08Q355.7,34.6,358,38.45Z" transform="translate(-30.2 -17.73)"/><path class="cls-3" d="M350.18,27.13A30.46,30.46,0,0,0,347,23.85,30.46,30.46,0,0,1,350.18,27.13Z" transform="translate(-30.2 -17.73)"/><path class="cls-3" d="M341.59,134.71l.28.42Z" transform="translate(-30.2 -17.73)"/><path class="cls-3" d="M431.69,193.49c.47,1.13.92,2.26,1.34,3.4C432.61,195.75,432.16,194.62,431.69,193.49Z" transform="translate(-30.2 -17.73)"/><path class="cls-3" d="M377.21,184.24c1.81,2.39,3.66,4.76,5.49,7.15C380.87,189,379,186.63,377.21,184.24Z" transform="translate(-30.2 -17.73)"/><path class="cls-3" d="M380.37,97.19c.86,2.91,1.72,5.81,2.6,8.7C382.09,103,381.23,100.1,380.37,97.19Z" transform="translate(-30.2 -17.73)"/><path class="cls-3" d="M433.66,198.77c.37,1.11.72,2.23,1,3.36C434.38,201,434,199.88,433.66,198.77Z" transform="translate(-30.2 -17.73)"/><path class="cls-3" d="M436.49,209.22c1.1,5,2,10,2.89,15C438.46,219.22,437.59,214.18,436.49,209.22Z" transform="translate(-30.2 -17.73)"/><path class="cls-3" d="M353.17,151.36l1.26,1.75Z" transform="translate(-30.2 -17.73)"/><path class="cls-3" d="M435.22,204c.33,1.23.63,2.47.92,3.72C435.85,206.46,435.55,205.22,435.22,204Z" transform="translate(-30.2 -17.73)"/><path class="cls-3" d="M365,167.86c1,1.29,1.92,2.57,2.87,3.87C367,170.43,366,169.15,365,167.86Z" transform="translate(-30.2 -17.73)"/><path class="cls-3" d="M391.75,131.43q1.68,4.14,3.55,8.17Q393.43,135.57,391.75,131.43Z" transform="translate(-30.2 -17.73)"/><path class="cls-3" d="M385.67,114.53c1.39,4.3,2.86,8.55,4.45,12.74C388.53,123.08,387.06,118.83,385.67,114.53Z" transform="translate(-30.2 -17.73)"/><path class="cls-3" d="M389.72,200.53q6.18,7.91,12.47,15.72Q395.89,208.44,389.72,200.53Z" transform="translate(-30.2 -17.73)"/><path class="cls-3" d="M414.09,168.46c1.73,2,3.48,4,5.18,6C417.57,172.42,415.82,170.45,414.09,168.46Z" transform="translate(-30.2 -17.73)"/><path class="cls-3" d="M421.8,177.44c1.66,2,3.24,4.12,4.7,6.29C425,181.56,423.46,179.48,421.8,177.44Z" transform="translate(-30.2 -17.73)"/><path class="cls-3" d="M428.58,187.09c.9,1.56,1.69,3.16,2.43,4.78C430.27,190.25,429.48,188.65,428.58,187.09Z" transform="translate(-30.2 -17.73)"/><path class="cls-3" d="M304.52,54.32c.62,4,1.16,8,1.68,12.06L315.15,87c-1,.87-2,1.8-3,2.73q14.25,22.78,29.41,45l.28.42q5.6,8.16,11.3,16.23l1.26,1.75q5.25,7.41,10.6,14.75c1,1.29,1.92,2.57,2.87,3.87,3.09,4.18,6.18,8.36,9.31,12.51,1.81,2.39,3.66,4.76,5.49,7.15,2.33,3.05,4.65,6.11,7,9.14q6.18,7.91,12.47,15.72c.14.16.26.33.4.49l.06.08,5.89,7.31.41.52c2,2.54,4.05,5.09,6,7.68a147.41,147.41,0,0,0,24.44-7.93l0-.16c-.92-5-1.79-10.06-2.89-15-.11-.51-.23-1-.35-1.51-.29-1.25-.59-2.49-.92-3.72-.17-.62-.34-1.24-.52-1.86-.32-1.13-.67-2.25-1-3.36-.2-.63-.41-1.26-.63-1.88-.42-1.14-.87-2.27-1.34-3.4-.23-.54-.44-1.08-.68-1.62-.74-1.62-1.53-3.22-2.43-4.78v0c-.66-1.14-1.35-2.25-2.08-3.34-1.46-2.17-3-4.25-4.7-6.29-.82-1-1.67-2-2.53-3-1.7-2-3.45-4-5.18-6-.86-1-1.72-2-2.56-3s-1.67-2-2.48-3.06A118.28,118.28,0,0,1,395.3,139.6q-1.87-4-3.55-8.17c-.56-1.38-1.1-2.77-1.63-4.16-1.59-4.19-3.06-8.44-4.45-12.74q-1.4-4.29-2.7-8.64c-.88-2.89-1.74-5.79-2.6-8.7-1.71-5.81-3.41-11.64-5.21-17.41a238,238,0,0,0-11-29.49c-1.88-4-3.93-8-6.2-11.84q-2.26-3.84-4.85-7.51c-.26-.37-.53-.72-.79-1.08-.69-.94-1.4-1.85-2.14-2.73A30.46,30.46,0,0,0,347,23.85,21.83,21.83,0,0,0,344.56,22a24.27,24.27,0,0,0-7.36-3c-.86-.22-1.74-.4-2.61-.55-1.28-.22-2.56-.38-3.83-.49-.31,0-.63,0-.94,0-1-.07-1.94-.12-2.9-.12-.3,0-.59,0-.88,0-1,0-2,0-3,.12l-.7.08c-1.05.11-2.09.22-3.13.39-.16,0-.32.06-.48.09-1.11.19-2.22.4-3.32.66l-.27.07c-1.17.28-2.34.6-3.5,1l-.1,0c-1.21.38-2.41.79-3.6,1.25h0c-1.21.47-2.42,1-3.61,1.51h0C303,33.28,303.72,43.66,304.52,54.32Z" transform="translate(-30.2 -17.73)"/><path class="cls-3" d="M312.18,89.73c1-.93,1.95-1.86,3-2.73L306.2,66.38q1.1,8.49,2,17C309.5,85.51,310.85,87.61,312.18,89.73Z" transform="translate(-30.2 -17.73)"/><path class="cls-4" d="M68.57,274,30.2,280.39l46.92,2.31c4.51.22,9.11.44,13.46-.76,4.89-1.35,9.12-4.37,13.24-7.34L114,267.29,85.87,267a27.27,27.27,0,0,1-5.69,3.91C76.57,272.68,72.54,273.36,68.57,274Z" transform="translate(-30.2 -17.73)"/><path class="cls-4" d="M394.66,282.54l16.28-.12-15.36-.16Z" transform="translate(-30.2 -17.73)"/><path class="cls-3" d="M146,181.55a49.2,49.2,0,0,1-14.88.64,25.7,25.7,0,0,1-10.75-3.29,13.16,13.16,0,0,1-6.33-9c-.48-3.31.66-6.65,2.22-9.6a36.67,36.67,0,0,1,10.19-11.93,27.68,27.68,0,0,1,12.43-5.65,17.39,17.39,0,0,1,13.08,3,18,18,0,0,1,6.44,11.87A32.79,32.79,0,0,1,157,171.32c-1.34,4.51-3.58,9.22-7.83,11.24" transform="translate(-30.2 -17.73)"/></svg>