<svg id="Final" xmlns="http://www.w3.org/2000/svg" viewBox="0 0 1633.5 625.42"><defs><style>.cls-1{font-size:500px;font-family:AdornSCondensedSans, AdornS Condensed Sans;}.cls-1,.cls-4{fill:#e82e2e;}.cls-2{letter-spacing:-0.03em;}.cls-3{letter-spacing:-0.02em;}.cls-4{stroke:#b5b5b5;stroke-miterlimit:10;}.cls-5{font-size:100px;fill:#fff;font-family:P22UndergroundMedium, P22 Underground;}.cls-6{letter-spacing:-0.04em;}.cls-7{letter-spacing:-0.12em;}.cls-8{letter-spacing:-0.1em;}.cls-9{letter-spacing:-0.08em;}</style></defs><text class="cls-1" transform="translate(319.75 491.52)"><tspan class="cls-2">K</tspan><tspan class="cls-3" x="222" y="0">A</tspan><tspan x="460.5" y="0">P</tspan><tspan class="cls-2" x="703.5" y="0">H</tspan><tspan x="942.99" y="0">A</tspan></text><path class="cls-4" d="M92.24,370s63.52,61.48,14.19,236.47c0,0,98.65-146.61,41.89-251.34,0,0,63.51-41.21,46-125.67,0,0-2.7-48-54.73-97.29,0,0-42.57-58.79-41.89-129,0,0-24.32,70.94,13.51,136.48s77.7,134.45-12.83,173c0,0-79.06-12.84-63.52-99.33,0,0,2.71-31.08,50-89.18,0,0-65.54,29.73-83.78,111.48,0,0-10.13,78.38,58.11,116.21C59.14,351.72,80.76,353.07,92.24,370Z"/><path class="cls-4" d="M60.51,228.63s46-8.11,34.35-50c0,0-14.9-13.52-29.16,0C65.7,178.63,37.83,212.41,60.51,228.63Z"/><rect class="cls-4" x="234" y="512.92" width="1370" height="112"/><text class="cls-5" transform="translate(525.48 592.48)">B</text><text class="cls-5" transform="translate(585.48 592.48) scale(0.7)">IENE<tspan class="cls-6" x="219.99" y="0">S</tspan><tspan class="cls-7" x="266.99" y="0">T</tspan><tspan x="316.99" y="0">AR</tspan></text><text class="cls-5" transform="translate(899.08 592.48)"> </text><text class="cls-5" transform="translate(925.08 592.48) scale(0.7)"><tspan class="cls-8">P</tspan><tspan x="47" y="0">ARA</tspan></text><text class="cls-5" transform="translate(1097.28 592.48)"> </text><text class="cls-5" transform="translate(1123.27 592.48) scale(0.7)"><tspan class="cls-9">T</tspan><tspan x="54" y="0">ODOS</tspan></text></svg>